# xmcd
#
# Track frame offsets:
#	150
#	16736
#	30903
#	47809
#	63105
#	79973
#	94795
#	111773
#	128428
#	140442
#	153880
#	170344
#
# Disc length: 2535 seconds
#
# Revision: 0
# Processed by: cddbd v1.5.1PL2 Copyright (c) Steve Scherf et al.
# Submitted via: dBpowerAMP V4.0
#
DISCID=8509e50c
DTITLE=Dieter Desquiotz - Fräi Nuecht
DYEAR=1900
DGENRE=country
TTITLE0=mir hun keen Béier méi
TTITLE1=du hues déng Luuten un
TTITLE2=Kättchen Kättchen
TTITLE3=nëmmen du
TTITLE4=maach de Béier op
TTITLE5=Schwéiermamm
TTITLE6=wann ech emol tanken gin
TTITLE7=du bas ze domm fir an de Schnéi ze pissen
TTITLE8=leck mech
TTITLE9=Sierra Madre
TTITLE10=mir hun keen Béier méi
TTITLE11=my way
EXTD=
EXTT0=
EXTT1=
EXTT2=
EXTT3=
EXTT4=
EXTT5=
EXTT6=
EXTT7=
EXTT8=
EXTT9=
EXTT10=
EXTT11=
PLAYORDER=
